<?xml version="1.0" encoding="UTF-8"?> <!-- Generator: Adobe Illustrator 25.0.0, SVG Export Plug-In . SVG Version: 6.00 Build 0) --> <svg xmlns="http://www.w3.org/2000/svg" xmlns:xlink="http://www.w3.org/1999/xlink" version="1.1" id="レイヤー_1" x="0px" y="0px" viewBox="0 0 103.27 36.9" style="enable-background:new 0 0 103.27 36.9;" xml:space="preserve"> <style type="text/css"> .st0{fill:#C30D23;} .st1{fill:#121D3C;} </style> <g> <g> <path class="st0" d="M30.14,0l-0.68,3.29C29.1,5,28.61,6.41,27.97,7.53c-0.64,1.11-1.54,2.05-2.71,2.82 c-1.16,0.76-2.41,1.28-3.74,1.55l0.55-2.66c1.01-0.5,1.67-1.18,1.97-2.04H22.5L23.99,0C23.99,0,30.14,0,30.14,0z"></path> <path class="st1" d="M91.23,28.97h4.48l0.93-4.49h3.05l-0.93,4.49h4.51l-0.63,3.05h-4.51l-0.93,4.47h-3.05l0.93-4.47H90.6 L91.23,28.97z"></path> <path class="st1" d="M47.46,16.28h5.29c1.43,0,2.51,0.11,3.23,0.34s1.23,0.55,1.53,0.98c0.3,0.42,0.45,0.93,0.47,1.54 c0.01,0.6-0.11,1.54-0.38,2.8l-0.36,1.76c-0.26,1.29-0.59,2.23-0.98,2.82c-0.39,0.59-0.97,1.04-1.75,1.36 c-0.78,0.32-1.74,0.47-2.89,0.47h-1.41l-1.69,8.14h-5.25L47.46,16.28z M52,19.73l-1.07,5.15c0.15,0.01,0.27,0.01,0.39,0.01 c0.48,0,0.84-0.11,1.08-0.35c0.24-0.24,0.43-0.73,0.59-1.48l0.34-1.66c0.14-0.69,0.13-1.14-0.04-1.35 C53.1,19.84,52.67,19.73,52,19.73z"></path> <path class="st1" d="M65.33,16.28l-4.2,20.21h-5.19l4.19-20.21H65.33z"></path> <path class="st1" d="M77.93,19.92L74.5,36.48h-5.13l0.37-1.37c-0.47,0.56-0.98,0.98-1.55,1.25c-0.57,0.28-1.19,0.42-1.85,0.42 c-0.76,0-1.36-0.13-1.8-0.4s-0.74-0.62-0.89-1.06c-0.14-0.44-0.2-0.9-0.16-1.38s0.21-1.43,0.5-2.85l2.32-11.17h5.04l-2.34,11.27 c-0.27,1.29-0.39,2.05-0.36,2.3c0.03,0.24,0.22,0.36,0.57,0.36c0.38,0,0.62-0.13,0.74-0.38c0.12-0.25,0.32-1.05,0.61-2.41 l2.31-11.14H77.93z"></path> <path class="st1" d="M88.94,25.21h-4.47l0.18-0.9c0.16-0.76,0.22-1.25,0.17-1.45c-0.05-0.21-0.24-0.31-0.59-0.31 c-0.28,0-0.52,0.09-0.7,0.28c-0.18,0.19-0.31,0.47-0.39,0.84c-0.11,0.51-0.15,0.88-0.13,1.11c0.02,0.24,0.18,0.5,0.48,0.78 c0.29,0.28,0.94,0.69,1.92,1.24c1.32,0.72,2.14,1.39,2.46,2.02c0.32,0.63,0.36,1.55,0.12,2.76c-0.28,1.34-0.67,2.37-1.16,3.05 c-0.49,0.68-1.18,1.21-2.08,1.59c-0.89,0.37-1.92,0.55-3.08,0.55c-1.28,0-2.34-0.2-3.16-0.6c-0.83-0.4-1.34-0.94-1.54-1.62 c-0.2-0.68-0.16-1.71,0.13-3.09l0.17-0.8h4.47l-0.22,1.05c-0.18,0.89-0.25,1.47-0.19,1.73c0.06,0.27,0.25,0.4,0.58,0.4 c0.36,0,0.63-0.09,0.81-0.27s0.32-0.55,0.45-1.13c0.16-0.79,0.17-1.29,0.03-1.49c-0.15-0.2-1-0.79-2.57-1.77 c-1.31-0.83-2.05-1.58-2.24-2.26c-0.18-0.68-0.18-1.48,0.01-2.41c0.27-1.32,0.65-2.3,1.13-2.93c0.48-0.63,1.18-1.11,2.08-1.45 c0.91-0.34,1.91-0.51,3.02-0.51c1.1,0,2,0.14,2.71,0.42c0.71,0.28,1.23,0.65,1.55,1.1c0.32,0.46,0.48,0.88,0.48,1.27 c0.01,0.39-0.08,1-0.25,1.83L88.94,25.21z"></path> <path class="st0" d="M22.89,0l-1.53,7.36h-5.68L9.57,36.79H0L6.11,7.36H0.45L1.98,0C1.98,0,22.89,0,22.89,0z"></path> <path class="st1" d="M37.99,20.05h-6.51l0.27-1.31c0.23-1.11,0.32-1.82,0.25-2.11c-0.07-0.3-0.35-0.45-0.86-0.45 c-0.41,0-0.75,0.13-1.01,0.41c-0.26,0.27-0.45,0.68-0.57,1.23c-0.15,0.74-0.21,1.28-0.18,1.63c0.03,0.34,0.26,0.72,0.69,1.13 s1.36,1.01,2.8,1.8c1.92,1.04,3.12,2.02,3.59,2.94c0.47,0.92,0.53,2.26,0.17,4.02c-0.41,1.96-0.97,3.44-1.69,4.45 c-0.72,1-1.73,1.77-3.03,2.3c-1.3,0.54-2.8,0.81-4.48,0.81c-1.86,0-3.4-0.29-4.61-0.87c-1.2-0.58-1.96-1.37-2.24-2.36 c-0.29-0.99-0.23-2.5,0.19-4.51L21.01,28h6.51l-0.31,1.53c-0.27,1.3-0.36,2.14-0.28,2.53s0.37,0.58,0.85,0.58 c0.52,0,0.91-0.13,1.18-0.39c0.26-0.26,0.48-0.81,0.65-1.64c0.24-1.15,0.25-1.87,0.04-2.16c-0.22-0.29-1.46-1.15-3.73-2.58 c-1.91-1.21-2.99-2.31-3.26-3.3c-0.27-0.99-0.26-2.16,0.02-3.52c0.4-1.93,0.95-3.34,1.65-4.26c0.7-0.92,1.71-1.62,3.03-2.12 s2.79-0.75,4.4-0.75c1.6,0,2.92,0.2,3.96,0.61s1.79,0.94,2.24,1.61c0.46,0.67,0.7,1.28,0.71,1.85s-0.11,1.46-0.36,2.68 L37.99,20.05z"></path> </g> </g> <g> </g> <g> </g> <g> </g> <g> </g> <g> </g> <g> </g> </svg> 